#!OML:ASF Y:\EmotionMaleHayes\Project 1\Capture day 1\Session 1\Male1.ASF
:FULLY-SPECIFIED
:DEGREES
709
root -6.21217 16.8747 -0.187118 7.71762 74.7738 9.40548
lowerback 4.4312 1.88849 -2.70987
upperback 3.94647 2.52943 -1.24708
thorax 1.51743 1.25679 0.159627
lowerneck -26.0645 1.9591 6.3563
upperneck 33.0515 1.96342 -3.82868
head 16.3459 1.21706 -2.30569
rclavicle -1.87106e-014 7.55382e-015
rhumerus 35.2912 17.527 -47.9878
rradius 38.4143
rwrist -0.528971
rhand -2.61465 -26.3137
rfingers 7.12502
rthumb 23.0838 -54.951
lclavicle -1.87106e-014 7.55382e-015
lhumerus 36.5563 -19.3991 38.2417
lradius 41.7851
lwrist -0.221477
lhand -3.59694 -27.9
lfingers 7.12502
lthumb 22.141 0.852149
rfemur 22.9327 8.31729 7.89266
rtibia 14.6468
rfoot -4.03135 4.45801
rtoes 9.48184
lfemur -10.0714 0.757617 -14.815
ltibia 11.8515
lfoot -1.71631 10.2167
ltoes -9.91331
710
root -6.11036 16.9199 -0.236451 6.52023 74.4029 8.23298
lowerback 4.66984 2.00166 -2.47419
upperback 3.97139 2.68164 -1.323
thorax 1.42064 1.34099 -0.063168
lowerneck -25.9974 2.16739 6.78777
upperneck 33.3029 2.30712 -4.334
head 16.4965 1.34862 -2.53568
rclavicle -4.12975e-014 2.5842e-015
rhumerus 35.2624 17.5524 -48.3311
rradius 37.9424
rwrist -0.151137
rhand -2.1464 -26.6553
rfingers 7.12502
rthumb 23.533 -55.2357
lclavicle -4.12975e-014 2.5842e-015
lhumerus 37.6418 -19.8121 38.0229
lradius 40.4833
lwrist 0.287733
lhand -3.48638 -27.6644
lfingers 7.12502
lthumb 22.2471 1.07512
rfemur 22.5533 8.0637 7.6922
rtibia 15.3308
rfoot -2.29269 4.43006
rtoes 15.0808
lfemur -9.59898 0.852946 -14.7451
ltibia 11.9011
lfoot -1.83537 10.4016
ltoes -10.8208
711
root -6.00642 16.9635 -0.287225 5.53682 73.8834 7.28671
lowerback 4.24336 2.06665 -2.26362
upperback 4.43409 2.81504 -1.41029
thorax 2.14881 1.41035 -0.246144
lowerneck -26.1606 2.39216 7.02117
upperneck 33.3153 2.65075 -4.65991
head 16.5798 1.46723 -2.64896
rclavicle -1.0635e-014 -2.52457e-014
rhumerus 36.1294 16.8118 -49.2973
rradius 36.8308
rwrist 1.31449
rhand -1.59033 -26.2975
rfingers 7.12502
rthumb 24.0663 -54.8084
lclavicle -1.0635e-014 -2.52457e-014
lhumerus 37.6511 -19.4673 37.8477
lradius 40.4456
lwrist 0.102543
lhand -3.18917 -27.515
lfingers 7.12502
lthumb 22.5324 1.19023
rfemur 22.0687 7.88467 7.41616
rtibia 16.0977
rfoot -1.16334 4.44261
rtoes 17.9845
lfemur -9.00894 0.877655 -14.7615
ltibia 11.831
lfoot -2.20776 10.7184
ltoes -10.2605
712
root -5.9034 17.0052 -0.335864 5.39746 73.2383 7.14942
lowerback 4.48547 2.25676 -2.39729
upperback 4.33096 3.05232 -1.46326
thorax 1.901 1.5285 -0.245452
lowerneck -26.0213 2.38056 6.80107
upperneck 33.7337 2.78893 -4.64358
head 16.7652 1.51469 -2.5827
rclavicle -2.74323e-014 3.57812e-015
rhumerus 35.8896 17.5501 -48.6505
rradius 37.0331
rwrist 1.32744
rhand -1.34891 -26.1757
rfingers 7.12502
rthumb 24.2977 -54.6558
lclavicle -2.74323e-014 3.57812e-015
lhumerus 37.2911 -19.7318 38.0824
lradius 40.2721
lwrist -0.436461
lhand -2.63455 -27.4326
lfingers 7.12502
lthumb 23.0647 1.20712
rfemur 21.4564 7.75878 6.83202
rtibia 16.9329
rfoot -0.346697 4.5535
rtoes 19.4895
lfemur -8.42691 0.788736 -15.0651
ltibia 11.6933
lfoot -2.81151 11.2635
ltoes -8.58783
713
root -5.80555 17.0457 -0.380323 5.00974 72.6782 6.66413
lowerback 4.55218 2.38184 -2.47479
upperback 4.26374 3.21072 -1.48907
thorax 1.78994 1.60676 -0.238541
lowerneck -25.7931 2.40215 6.67239
upperneck 33.963 2.9461 -4.67806
head 16.8393 1.56869 -2.54601
rclavicle -7.10655e-015 -8.74653e-015
rhumerus 35.9454 18.077 -48.3482
rradius 36.9522
rwrist 1.96104
rhand -0.998398 -25.7905
rfingers 7.12502
rthumb 24.6337 -54.2252
lclavicle -7.10655e-015 -8.74653e-015
lhumerus 36.9502 -19.8824 38.0965
lradius 40.1491
lwrist -0.723399
lhand -1.3577 -27.5692
lfingers 7.12502
lthumb 24.2893 0.912074
rfemur 20.7639 7.62535 6.47285
rtibia 17.7981
rfoot 0.12011 4.66831
rtoes 18.5156
lfemur -7.9988 0.709407 -15.2063
ltibia 11.5863
lfoot -3.36073 11.7369
ltoes -7.79557
714
root -5.71063 17.0822 -0.421768 4.20731 72.1658 5.68753
lowerback 4.50355 2.50756 -2.36927
upperback 4.24525 3.3824 -1.54747
thorax 1.80509 1.6957 -0.360514
lowerneck -25.6319 2.44056 6.76064
upperneck 34.126 3.05735 -4.82198
head 16.8992 1.61295 -2.60533
rclavicle -9.24349e-015 -2.82274e-014
rhumerus 36.1487 18.4763 -48.0087
rradius 36.7844
rwrist 2.45495
rhand -0.832122 -25.2736
rfingers 7.12502
rthumb 24.7931 -53.6865
lclavicle -9.24349e-015 -2.82274e-014
lhumerus 36.7942 -20.0085 37.8069
lradius 40.1025
lwrist -0.900926
lhand 0.378731 -28.0968
lfingers 7.12502
lthumb 25.9531 0.15129
rfemur 19.9922 7.45773 6.34595
rtibia 18.6924
rfoot 0.395181 4.75362
rtoes 16.1663
lfemur -7.61899 0.824345 -15.1243
ltibia 11.4252
lfoot -3.82078 12.0164
ltoes -7.15584
715
root -5.62076 17.1143 -0.460282 4.04419 71.6457 5.3526
lowerback 4.51303 2.67182 -2.51105
upperback 4.1905 3.596 -1.65481
thorax 1.74006 1.80132 -0.400597
lowerneck -25.4886 2.51326 6.88437
upperneck 34.2722 3.18433 -4.92244
head 16.9569 1.67434 -2.64762
rclavicle -3.42904e-015 9.54166e-015
rhumerus 36.142 18.7595 -47.6664
rradius 36.8634
rwrist 2.81916
rhand -0.584409 -25.226
rfingers 7.12502
rthumb 25.0305 -53.606
lclavicle -3.42904e-015 9.54166e-015
lhumerus 36.6175 -20.2989 37.3107
lradius 40.2875
lwrist -1.29313
lhand 1.36434 -28.1631
lfingers 7.12502
lthumb 26.8965 -0.0567135
rfemur 19.1315 7.28878 6.00424
rtibia 19.6961
rfoot 1.0642 4.39319
rtoes 15.4675
lfemur -7.2314 1.04578 -15.2401
ltibia 11.1604
lfoot -4.13193 12.2099
ltoes -7.00642
716
root -5.53788 17.1433 -0.494817 3.83302 71.149 4.99212
lowerback 4.65509 2.85234 -2.7159
upperback 4.08366 3.82073 -1.74697
thorax 1.54218 1.91215 -0.400084
lowerneck -25.3479 2.58187 7.08661
upperneck 34.4064 3.25373 -4.99034
head 17.0056 1.72761 -2.70128
rclavicle -1.40143e-014 -1.63003e-014
rhumerus 35.9016 18.8809 -47.6027
rradius 37.0315
rwrist 3.50715
rhand -0.245384 -25.3531
rfingers 7.12502
rthumb 25.3553 -53.6874
lclavicle -1.40143e-014 -1.63003e-014
lhumerus 36.4423 -20.7309 36.6793
lradius 40.541
lwrist -1.83232
lhand 1.59217 -27.4721
lfingers 7.12502
lthumb 27.1145 0.600487
rfemur 18.2566 7.29121 5.8176
rtibia 20.8921
rfoot 1.93426 3.50934
rtoes 15.443
lfemur -6.81962 1.25167 -15.2732
ltibia 10.8015
lfoot -4.29058 12.3313
ltoes -7.77486
717
root -5.45531 17.1701 -0.527005 3.39933 70.7574 4.38336
lowerback 4.6868 2.98992 -2.80865
upperback 4.03144 3.99866 -1.84402
thorax 1.4697 2.00132 -0.458045
lowerneck -25.3623 2.62361 7.32672
upperneck 34.5925 3.2535 -5.06237
head 17.1141 1.75577 -2.78099
rclavicle 1.27222e-014 -2.54444e-014
rhumerus 35.8046 18.8351 -47.7989
rradius 36.962
rwrist 4.44529
rhand -0.325335 -25.0227
rfingers 7.12502
rthumb 25.2787 -53.3678
lclavicle 1.27222e-014 -2.54444e-014
lhumerus 36.5879 -20.9403 36.1365
lradius 40.4161
lwrist -2.45615
lhand 2.11109 -27.1096
lfingers 7.12502
lthumb 27.6108 0.884655
rfemur 17.3945 7.25647 5.79128
rtibia 22.0277
rfoot 2.5723 2.83538
rtoes 15.7284
lfemur -6.46888 1.46836 -15.1896
ltibia 10.4951
lfoot -4.46096 12.2481
ltoes -8.26653
